<svg width="6.036391707179968in" height="6.024701678791645in" viewBox="0 0 6.036391707179968 6.024701678791645" xmlns="http://www.w3.org/2000/svg" xmlnsXlink="http://www.w3.org/1999/xlink">
  <g transform="translate(0 6.024701678791645)">
    <g transform="scale(1, -1)"><g fill="none" stroke="rgb(0,0,0)"><g transform="matrix(1,0,0,1,3.083635801668157,3.0719457732798343)"><path class="outline" d="M 0 2.952755905511811 C 1.630762056496063 2.952755905511811 2.952755905511811 1.630762056496063 2.952755905511811 0 C 2.952755905511811 -1.630762056496063 1.630762056496063 -2.952755905511811 0 -2.952755905511811 C -1.630762056496063 -2.952755905511811 -2.952755905511811 -1.630762056496063 -2.952755905511811 0 C -2.952755905511811 1.630762056496063 -1.630762056496063 2.952755905511811 0 2.952755905511811" stroke-width="0.01"></path></g></g><g fill="rgb(153,153,153)" stroke="none"><g transform="matrix(1,0,0,1,1.0768171364281323,3.0719457732798343)"><path class="fill" d="M -0.797244094488189 -0.8031496062992125 C -0.797244094488189 -0.8031496062992125 0.797244094488189 -0.8031496062992125 0.797244094488189 -0.8031496062992125 C 0.797244094488189 -0.8031496062992125 0.797244094488189 0.8031496062992125 0.797244094488189 0.8031496062992125 C 0.797244094488189 0.8031496062992125 -0.797244094488189 0.8031496062992125 -0.797244094488189 0.8031496062992125 C -0.797244094488189 0.8031496062992125 -0.797244094488189 -0.8031496062992125 -0.797244094488189 -0.8031496062992125"></path></g></g><g fill="rgb(153,153,153)" stroke="none"><g transform="matrix(1,0,0,1,5.0904544669081835,3.0719457732798343)"><path class="fill" d="M -0.797244094488189 -0.8031496062992125 C -0.797244094488189 -0.8031496062992125 0.797244094488189 -0.8031496062992125 0.797244094488189 -0.8031496062992125 C 0.797244094488189 -0.8031496062992125 0.797244094488189 0.8031496062992125 0.797244094488189 0.8031496062992125 C 0.797244094488189 0.8031496062992125 -0.797244094488189 0.8031496062992125 -0.797244094488189 0.8031496062992125 C -0.797244094488189 0.8031496062992125 -0.797244094488189 -0.8031496062992125 -0.797244094488189 -0.8031496062992125"></path></g></g><g fill="rgb(0,0,0)" stroke="none"><g transform="matrix(1,0,0,1,2.107187782116271,3.776864811500045)"><path class="fill" d="M -0.09842519685039369 -1.5771890916213025 C -0.09842519685039369 -1.5771890916213025 0.09842519685039369 -1.5771890916213025 0.09842519685039369 -1.5771890916213025 C 0.09842519685039369 -1.5771890916213025 0.09842519685039369 1.5771890916213025 0.09842519685039369 1.5771890916213025 C 0.09842519685039369 1.5771890916213025 -0.09842519685039369 1.5771890916213025 -0.09842519685039369 1.5771890916213025 C -0.09842519685039369 1.5771890916213025 -0.09842519685039369 -1.5771890916213025 -0.09842519685039369 -1.5771890916213025"></path></g></g><g fill="rgb(153,153,153)" stroke="none"><g transform="matrix(1,0,0,1,3.083635801668157,2.579819789027866)"><path class="fill" d="M -0.2854330708661417 -0.15748031496062992 C -0.2854330708661417 -0.15748031496062992 0.2854330708661417 -0.15748031496062992 0.2854330708661417 -0.15748031496062992 C 0.2854330708661417 -0.15748031496062992 0.2854330708661417 0.15748031496062992 0.2854330708661417 0.15748031496062992 C 0.2854330708661417 0.15748031496062992 -0.2854330708661417 0.15748031496062992 -0.2854330708661417 0.15748031496062992 C -0.2854330708661417 0.15748031496062992 -0.2854330708661417 -0.15748031496062992 -0.2854330708661417 -0.15748031496062992"></path></g></g><g fill="rgb(0,0,0)" stroke="none"><g transform="matrix(1,0,0,1,1.5088326520618576,5.040449710287706)"><path class="fill" d="M 0 0.05905511811023622 C 0.03261524112992126 0.05905511811023622 0.05905511811023622 0.03261524112992126 0.05905511811023622 0 C 0.05905511811023622 -0.03261524112992126 0.03261524112992126 -0.05905511811023622 0 -0.05905511811023622 C -0.03261524112992126 -0.05905511811023622 -0.05905511811023622 -0.03261524112992126 -0.05905511811023622 0 C -0.05905511811023622 0.03261524112992126 -0.03261524112992126 0.05905511811023622 0 0.05905511811023622"></path></g></g><g fill="rgb(0,0,0)" stroke="none"><g transform="matrix(1,0,0,1,4.658438951274457,5.040449710287706)"><path class="fill" d="M 0 0.05905511811023622 C 0.03261524112992126 0.05905511811023622 0.05905511811023622 0.03261524112992126 0.05905511811023622 0 C 0.05905511811023622 -0.03261524112992126 0.03261524112992126 -0.05905511811023622 0 -0.05905511811023622 C -0.03261524112992126 -0.05905511811023622 -0.05905511811023622 -0.03261524112992126 -0.05905511811023622 0 C -0.05905511811023622 0.03261524112992126 -0.03261524112992126 0.05905511811023622 0 0.05905511811023622"></path></g></g><g fill="rgb(0,0,0)" stroke="none"><g transform="matrix(1,0,0,1,1.5088326520618576,1.103441836271959)"><path class="fill" d="M 0 0.05905511811023622 C 0.03261524112992126 0.05905511811023622 0.05905511811023622 0.03261524112992126 0.05905511811023622 0 C 0.05905511811023622 -0.03261524112992126 0.03261524112992126 -0.05905511811023622 0 -0.05905511811023622 C -0.03261524112992126 -0.05905511811023622 -0.05905511811023622 -0.03261524112992126 -0.05905511811023622 0 C -0.05905511811023622 0.03261524112992126 -0.03261524112992126 0.05905511811023622 0 0.05905511811023622"></path></g></g><g fill="rgb(0,0,0)" stroke="none"><g transform="matrix(1,0,0,1,4.67418698277052,1.103441836271959)"><path class="fill" d="M 0 0.05905511811023622 C 0.03261524112992126 0.05905511811023622 0.05905511811023622 0.03261524112992126 0.05905511811023622 0 C 0.05905511811023622 -0.03261524112992126 0.03261524112992126 -0.05905511811023622 0 -0.05905511811023622 C -0.03261524112992126 -0.05905511811023622 -0.05905511811023622 -0.03261524112992126 -0.05905511811023622 0 C -0.05905511811023622 0.03261524112992126 -0.03261524112992126 0.05905511811023622 0 0.05905511811023622"></path></g></g><g fill="rgb(153,153,153)" stroke="none"><g transform="matrix(1,0,0,1,1.7233057234541893,3.0719457732798343)"><path class="fill" d="M -0.15748031496062992 -1.0688976377952755 C -0.15748031496062992 -1.0688976377952755 0.15748031496062992 -1.0688976377952755 0.15748031496062992 -1.0688976377952755 C 0.15748031496062992 -1.0688976377952755 0.15748031496062992 1.0688976377952755 0.15748031496062992 1.0688976377952755 C 0.15748031496062992 1.0688976377952755 -0.15748031496062992 1.0688976377952755 -0.15748031496062992 1.0688976377952755 C -0.15748031496062992 1.0688976377952755 -0.15748031496062992 -1.0688976377952755 -0.15748031496062992 -1.0688976377952755"></path></g></g><g fill="rgb(153,153,153)" stroke="none"><g transform="matrix(1,0,0,1,4.451477737200289,3.0719457732798343)"><path class="fill" d="M -0.15748031496062992 -1.0688976377952755 C -0.15748031496062992 -1.0688976377952755 0.15748031496062992 -1.0688976377952755 0.15748031496062992 -1.0688976377952755 C 0.15748031496062992 -1.0688976377952755 0.15748031496062992 1.0688976377952755 0.15748031496062992 1.0688976377952755 C 0.15748031496062992 1.0688976377952755 -0.15748031496062992 1.0688976377952755 -0.15748031496062992 1.0688976377952755 C -0.15748031496062992 1.0688976377952755 -0.15748031496062992 -1.0688976377952755 -0.15748031496062992 -1.0688976377952755"></path></g></g><g fill="rgb(153,153,153)" stroke="none"><g transform="matrix(1,0,0,1,3.0836358016681564,3.5640717575318024)"><path class="fill" d="M -0.2854330708661417 -0.15748031496062992 C -0.2854330708661417 -0.15748031496062992 0.2854330708661417 -0.15748031496062992 0.2854330708661417 -0.15748031496062992 C 0.2854330708661417 -0.15748031496062992 0.2854330708661417 0.15748031496062992 0.2854330708661417 0.15748031496062992 C 0.2854330708661417 0.15748031496062992 -0.2854330708661417 0.15748031496062992 -0.2854330708661417 0.15748031496062992 C -0.2854330708661417 0.15748031496062992 -0.2854330708661417 -0.15748031496062992 -0.2854330708661417 -0.15748031496062992"></path></g></g><g fill="rgb(0,0,0)" stroke="none"><g transform="matrix(1,0,0,1,4.060013754424064,2.373937735062306)"><path class="fill" d="M -0.09842519685039369 -1.5769534393073685 C -0.09842519685039369 -1.5769534393073685 0.09842519685039369 -1.5769534393073685 0.09842519685039369 -1.5769534393073685 C 0.09842519685039369 -1.5769534393073685 0.09842519685039369 1.5769534393073685 0.09842519685039369 1.5769534393073685 C 0.09842519685039369 1.5769534393073685 -0.09842519685039369 1.5769534393073685 -0.09842519685039369 1.5769534393073685 C -0.09842519685039369 1.5769534393073685 -0.09842519685039369 -1.5769534393073685 -0.09842519685039369 -1.5769534393073685"></path></g></g><g fill="none" stroke="rgb(0,0,0)"><g transform="matrix(1,0,0,1,3.0853962033538624,5.917393582002904)"><path class="outline" d="M -0.8858267716535435 0 C -0.8858267716535435 0 0.8858267716535431 0 0.8858267716535431 0" stroke-width="0.01"></path></g></g></g>
  </g>
</svg>